# xmcd CD database file
#
# Track frame offsets:
#	150
#	18300
#	34050
#	59850
#	85650
#	111750
#
# Disc length: 1836 seconds
#
# Revision: 0
# Processed by: cddbd v1.5.1PL0 Copyright (c) Steve Scherf et al.
# Submitted via: CDex 1.51
#
DISCID=47072a06
DTITLE=Bobby Bowens - Getting Back To Basics
DYEAR=1900
DGENRE=Blues
TTITLE0=Get Down On It
TTITLE1=Scratch Your Itching
TTITLE2=Get Down On It (Extended Remix)
TTITLE3=Get Down On It (Instrumental)
TTITLE4=Scratch Your Itching (Extended Remix)
TTITLE5=Scratch Your Itching (Instrumental)
EXTD=
EXTT0=
EXTT1=
EXTT2=
EXTT3=
EXTT4=
EXTT5=
PLAYORDER=
